<svg width="512" height="512" viewBox="0 0 512 512" fill="none" xmlns="http://www.w3.org/2000/svg" role="img" aria-labelledby="title desc">
  <title id="title">Graphclaw logo</title>
  <desc id="desc">A blue Microsoft Graph-style node mark with a sharp claw path.</desc>
  <rect width="512" height="512" rx="112" fill="#0F172A"/>
  <path d="M132 166C132 147.222 147.222 132 166 132H214C232.778 132 248 147.222 248 166V214C248 232.778 232.778 248 214 248H166C147.222 248 132 232.778 132 214V166Z" fill="#0078D4"/>
  <path d="M264 166C264 147.222 279.222 132 298 132H346C364.778 132 380 147.222 380 166V214C380 232.778 364.778 248 346 248H298C279.222 248 264 232.778 264 214V166Z" fill="#22C55E"/>
  <path d="M132 298C132 279.222 147.222 264 166 264H214C232.778 264 248 279.222 248 298V346C248 364.778 232.778 380 214 380H166C147.222 380 132 364.778 132 346V298Z" fill="#38BDF8"/>
  <path d="M264 298C264 279.222 279.222 264 298 264H346C364.778 264 380 279.222 380 298V346C380 364.778 364.778 380 346 380H298C279.222 380 264 364.778 264 346V298Z" fill="#F8FAFC"/>
  <path d="M212 126C253 175 269 222 260 268C252 314 218 351 160 380C205 377 245 361 281 332C317 303 342 259 356 199C321 223 286 226 250 208C228 197 215 170 212 126Z" fill="#0F172A"/>
  <path d="M350 134C339 202 316 254 280 290C246 324 203 342 151 344C206 368 257 366 304 338C351 311 382 262 398 191C379 177 363 158 350 134Z" fill="#0F172A" opacity=".85"/>
  <path d="M352 146C343 204 322 249 288 282C256 313 216 331 168 335" stroke="#F8FAFC" stroke-width="18" stroke-linecap="round"/>
  <path d="M226 143C255 185 268 225 260 264" stroke="#F8FAFC" stroke-width="18" stroke-linecap="round"/>
</svg>

